<svg width="10" height="19" viewBox="0 0 10 19" fill="none" xmlns="http://www.w3.org/2000/svg">
<path d="M9.5 3.98291H6.5C5.9477 3.98291 5.5 4.43063 5.5 4.98291V7.98291H9.5C9.6137 7.98039 9.7216 8.03331 9.7892 8.12481C9.8568 8.21631 9.8758 8.33491 9.84 8.44291L9.1 10.6429C9.0318 10.8448 8.8431 10.9813 8.63 10.9829H5.5V18.4829C5.5 18.759 5.2761 18.9829 5 18.9829H2.5C2.22386 18.9829 2 18.759 2 18.4829V10.9829H0.5C0.22386 10.9829 0 10.759 0 10.4829V8.48291C0 8.20681 0.22386 7.98291 0.5 7.98291H2V4.98291C2 2.77377 3.7909 0.98291 6 0.98291H9.5C9.7761 0.98291 10 1.20677 10 1.48291V3.48291C10 3.75905 9.7761 3.98291 9.5 3.98291Z" fill="black"/>
</svg>
