<svg width="18" height="19" viewBox="0 0 18 19" fill="none" xmlns="http://www.w3.org/2000/svg">
<path fill-rule="evenodd" clip-rule="evenodd" d="M13 0.98291H5C2.23858 0.98291 0 3.22149 0 5.98291V13.9829C0 16.7443 2.23858 18.9829 5 18.9829H13C15.7614 18.9829 18 16.7443 18 13.9829V5.98291C18 3.22149 15.7614 0.98291 13 0.98291ZM16.25 13.9829C16.2445 15.7755 14.7926 17.2274 13 17.2329H5C3.20735 17.2274 1.75549 15.7755 1.75 13.9829V5.98291C1.75549 4.19026 3.20735 2.7384 5 2.73291H13C14.7926 2.7384 16.2445 4.19026 16.25 5.98291V13.9829ZM13.75 6.23291C14.3023 6.23291 14.75 5.78519 14.75 5.23291C14.75 4.68063 14.3023 4.23291 13.75 4.23291C13.1977 4.23291 12.75 4.68063 12.75 5.23291C12.75 5.78519 13.1977 6.23291 13.75 6.23291ZM9 5.48291C6.51472 5.48291 4.5 7.49763 4.5 9.98291C4.5 12.4682 6.51472 14.4829 9 14.4829C11.4853 14.4829 13.5 12.4682 13.5 9.98291C13.5027 8.78861 13.0294 7.64248 12.1849 6.79799C11.3404 5.9535 10.1943 5.48025 9 5.48291ZM6.25 9.98291C6.25 11.5017 7.4812 12.7329 9 12.7329C10.5188 12.7329 11.75 11.5017 11.75 9.98291C11.75 8.46411 10.5188 7.23291 9 7.23291C7.4812 7.23291 6.25 8.46411 6.25 9.98291Z" fill="black"/>
</svg>
