<svg width="30" height="40" viewBox="0 0 30 40" fill="none" xmlns="http://www.w3.org/2000/svg">
<path d="M15.3337 -0.000976562C7.34575 -0.000976562 0.847168 6.49762 0.847168 14.4854C0.847168 24.3986 13.8111 38.9516 14.3631 39.5662C14.8815 40.1436 15.7867 40.1426 16.3043 39.5662C16.8561 38.9516 29.8201 24.3986 29.8201 14.4854C29.8199 6.49762 23.3215 -0.000976562 15.3337 -0.000976562ZM15.3337 21.774C11.3147 21.774 8.04521 18.5044 8.04521 14.4854C8.04521 10.4665 11.3148 7.19698 15.3337 7.19698C19.3525 7.19698 22.6221 10.4666 22.6221 14.4855C22.6221 18.5044 19.3525 21.774 15.3337 21.774Z" fill="black"/>
</svg>
